<svg width="304" height="267" viewBox="0 0 304 267" fill="none" xmlns="http://www.w3.org/2000/svg">
<g clip-path="url(#clip0_127_183)">
<mask id="path-1-inside-1_127_183" fill="white">
<path fill-rule="evenodd" clip-rule="evenodd" d="M139 66.001C159.987 66.001 177 48.9878 177 28.001C177 21.1797 175.203 14.7783 172.056 9.24435L238 0L247.374 66.8708C252.878 63.7699 259.232 62.0008 266 62.0008C286.987 62.0008 304 79.0139 304 100.001C304 120.988 286.987 138.001 266 138.001C262.972 138.001 260.026 137.646 257.202 136.977L266.543 203.607L201.357 212.745C203.693 217.673 205 223.184 205 229.001C205 249.988 187.987 267.001 167 267.001C146.013 267.001 129 249.988 129 229.001C129 226.896 129.171 224.83 129.5 222.818L64 232L54.7636 166.113C49.7072 168.602 44.0169 170.001 38 170.001C17.0132 170.001 0 152.988 0 132.001C0 111.014 17.0132 94.0008 38 94.0008C40.2994 94.0008 42.5512 94.205 44.7381 94.5963L35.4574 28.3933L102.059 19.0569C101.367 21.9251 101 24.9202 101 28.001C101 48.9878 118.013 66.001 139 66.001Z"/>
</mask>
<path d="M172.056 9.24435L171.778 7.26371L168.861 7.67261L170.317 10.233L172.056 9.24435ZM238 0L239.981 -0.277654L239.703 -2.25829L237.722 -1.98063L238 0ZM247.374 66.8708L245.394 67.1485L245.801 70.0529L248.356 68.6133L247.374 66.8708ZM257.202 136.977L257.663 135.031L254.815 134.356L255.221 137.255L257.202 136.977ZM266.543 203.607L266.82 205.588L268.801 205.31L268.523 203.329L266.543 203.607ZM201.357 212.745L201.08 210.764L198.384 211.142L199.55 213.602L201.357 212.745ZM129.5 222.818L131.474 223.141L131.913 220.46L129.223 220.838L129.5 222.818ZM64 232L62.0194 232.278L62.297 234.259L64.2776 233.981L64 232ZM54.7636 166.113L56.7442 165.835L56.3604 163.097L53.8801 164.318L54.7636 166.113ZM44.7381 94.5963L44.3858 96.565L47.1017 97.0511L46.7187 94.3187L44.7381 94.5963ZM35.4574 28.3933L35.1798 26.4127L33.1991 26.6904L33.4768 28.671L35.4574 28.3933ZM102.059 19.0569L104.003 19.5259L104.692 16.6681L101.781 17.0763L102.059 19.0569ZM175 28.001C175 47.8832 158.882 64.001 139 64.001V68.001C161.091 68.001 179 50.0924 179 28.001H175ZM170.317 10.233C173.297 15.4735 175 21.5354 175 28.001H179C179 20.8241 177.108 14.083 173.794 8.25572L170.317 10.233ZM172.334 11.225L238.278 1.98063L237.722 -1.98063L171.778 7.26371L172.334 11.225ZM236.019 0.277654L245.394 67.1485L249.355 66.5932L239.981 -0.277654L236.019 0.277654ZM248.356 68.6133C253.568 65.6768 259.585 64.0008 266 64.0008V60.0008C258.88 60.0008 252.188 61.863 246.393 65.1284L248.356 68.6133ZM266 64.0008C285.882 64.0008 302 80.1185 302 100.001H306C306 77.9094 288.091 60.0008 266 60.0008V64.0008ZM302 100.001C302 119.883 285.882 136.001 266 136.001V140.001C288.091 140.001 306 122.092 306 100.001H302ZM266 136.001C263.128 136.001 260.337 135.665 257.663 135.031L256.741 138.923C259.715 139.628 262.815 140.001 266 140.001V136.001ZM255.221 137.255L264.562 203.885L268.523 203.329L259.183 136.699L255.221 137.255ZM266.265 201.626L201.08 210.764L201.635 214.726L266.82 205.588L266.265 201.626ZM199.55 213.602C201.762 218.268 203 223.487 203 229.001H207C207 222.882 205.625 217.079 203.165 211.888L199.55 213.602ZM203 229.001C203 248.883 186.882 265.001 167 265.001V269.001C189.091 269.001 207 251.092 207 229.001H203ZM167 265.001C147.118 265.001 131 248.883 131 229.001H127C127 251.092 144.909 269.001 167 269.001V265.001ZM131 229.001C131 227.004 131.162 225.047 131.474 223.141L127.527 222.495C127.18 224.614 127 226.787 127 229.001H131ZM129.223 220.838L63.7223 230.02L64.2776 233.981L129.778 224.799L129.223 220.838ZM65.9806 231.723L56.7442 165.835L52.7829 166.39L62.0194 232.278L65.9806 231.723ZM53.8801 164.318C49.0925 166.676 43.7038 168.001 38 168.001V172.001C44.33 172.001 50.3219 170.529 55.647 167.907L53.8801 164.318ZM38 168.001C18.1177 168.001 2 151.883 2 132.001H-2C-2 154.092 15.9086 172.001 38 172.001V168.001ZM2 132.001C2 112.119 18.1177 96.0008 38 96.0008V92.0008C15.9086 92.0008 -2 109.909 -2 132.001H2ZM38 96.0008C40.1808 96.0008 42.3146 96.1944 44.3858 96.565L45.0904 92.6276C42.7877 92.2156 40.4181 92.0008 38 92.0008V96.0008ZM46.7187 94.3187L37.4381 28.1157L33.4768 28.671L42.7574 94.874L46.7187 94.3187ZM35.7351 30.374L102.336 21.0375L101.781 17.0763L35.1798 26.4127L35.7351 30.374ZM103 28.001C103 25.0794 103.348 22.2417 104.003 19.5259L100.114 18.5878C99.3856 21.6085 99 24.761 99 28.001H103ZM139 64.001C119.118 64.001 103 47.8832 103 28.001H99C99 50.0924 116.909 68.001 139 68.001V64.001Z" fill="#B5FFC5" mask="url(#path-1-inside-1_127_183)"/>
<circle cx="95" cy="86.001" r="6" stroke="#B5FFC5" stroke-width="2"/>
<circle cx="129" cy="81.001" r="6" stroke="#B5FFC5" stroke-width="2"/>
<circle cx="163" cy="76.001" r="6" stroke="#B5FFC5" stroke-width="2"/>
<circle cx="197" cy="71.001" r="6" stroke="#B5FFC5" stroke-width="2"/>
<path d="M136 173C144 169.001 166.5 168.501 173.5 171C171.5 197.5 136.5 190.5 136 173Z" stroke="#B5FFC5" stroke-width="2"/>
<rect x="60.6702" y="104.773" width="176.087" height="112.384" rx="21" transform="rotate(-8.12175 60.6702 104.773)" stroke="#B5FFC5" stroke-width="2"/>
<path d="M110.378 135.73L111.129 135.38L110.925 134.577C109.962 130.8 108.451 127.616 106.725 125.335C104.34 122.183 102.186 121.47 100.865 121.651C99.544 121.832 97.6599 123.097 96.2092 126.774C95.1397 129.485 94.5361 133.039 94.6523 137.027L94.6774 137.887L95.5309 137.991C100.653 138.615 106.017 137.765 110.378 135.73ZM105.13 126.542C106.549 128.417 107.859 131.056 108.767 134.257C105.148 135.779 100.836 136.46 96.6381 136.095C96.6337 132.694 97.1912 129.734 98.0697 127.508C99.3867 124.17 100.828 123.675 101.136 123.632C101.444 123.59 102.965 123.68 105.13 126.542ZM114.656 138.077C115.466 143.998 114.843 149.494 113.23 153.582C111.604 157.704 109.075 160.182 106.19 160.576C103.305 160.971 100.204 159.263 97.5306 155.73C94.879 152.225 92.8023 147.099 91.9923 141.178C91.1823 135.257 91.8057 129.761 93.4186 125.673C95.0448 121.551 97.573 119.073 100.458 118.679C103.343 118.284 106.444 119.992 109.118 123.525C111.769 127.03 113.846 132.156 114.656 138.077Z" stroke="#B5FFC5" stroke-width="2"/>
<path d="M106.29 126.316C107.921 128.473 109.382 131.529 110.317 135.202C106.131 137.155 100.957 137.978 96.0136 137.376C95.9006 133.498 96.4899 130.082 97.5011 127.519C98.885 124.011 100.548 123.131 101.362 123.02C102.176 122.908 104.014 123.309 106.29 126.316Z" fill="#B5FFC5"/>
<path d="M105.492 126.92C106.911 128.795 108.221 131.434 109.129 134.635C105.509 136.157 101.197 136.838 96.9998 136.473C96.9954 133.072 97.5529 130.112 98.4313 127.886C99.7484 124.547 101.189 124.053 101.498 124.01C101.806 123.968 103.327 124.058 105.492 126.92ZM106.687 161.945C113.493 161.014 117.666 150.437 116.008 138.32C114.351 126.203 107.49 117.135 100.684 118.066C93.8787 118.997 89.7055 129.574 91.3632 141.691C93.0209 153.808 99.8818 162.876 106.687 161.945Z" stroke="#B5FFC5" stroke-width="2"/>
<path d="M210.74 120.108L211.491 119.758L211.286 118.955C210.324 115.178 208.813 111.994 207.087 109.713C204.702 106.561 202.547 105.848 201.226 106.029C199.906 106.21 198.022 107.475 196.571 111.152C195.501 113.863 194.898 117.417 195.014 121.405L195.039 122.264L195.893 122.368C201.014 122.993 206.378 122.143 210.74 120.108ZM205.492 110.92C206.911 112.795 208.221 115.434 209.129 118.635C205.509 120.157 201.197 120.838 197 120.473C196.995 117.072 197.553 114.112 198.431 111.886C199.748 108.547 201.189 108.053 201.498 108.01C201.806 107.968 203.327 108.058 205.492 110.92ZM215.018 122.455C215.828 128.376 215.204 133.872 213.591 137.96C211.965 142.082 209.437 144.56 206.552 144.954C203.667 145.349 200.566 143.641 197.892 140.108C195.241 136.603 193.164 131.477 192.354 125.556C191.544 119.635 192.167 114.139 193.78 110.051C195.406 105.929 197.935 103.451 200.82 103.057C203.705 102.662 206.806 104.369 209.479 107.903C212.131 111.408 214.208 116.534 215.018 122.455Z" stroke="#B5FFC5" stroke-width="2"/>
<path d="M206.29 110.316C207.921 112.473 209.382 115.529 210.317 119.202C206.131 121.155 200.957 121.978 196.014 121.376C195.901 117.498 196.49 114.082 197.501 111.519C198.885 108.011 200.548 107.131 201.362 107.02C202.176 106.908 204.014 107.309 206.29 110.316Z" fill="#B5FFC5"/>
<path d="M205.492 110.92C206.911 112.795 208.221 115.434 209.129 118.635C205.509 120.157 201.197 120.838 197 120.473C196.995 117.072 197.553 114.112 198.431 111.886C199.748 108.547 201.189 108.053 201.498 108.01C201.806 107.968 203.327 108.058 205.492 110.92ZM206.687 145.945C213.493 145.014 217.666 134.437 216.008 122.32C214.351 110.203 207.49 101.135 200.684 102.066C193.879 102.997 189.706 113.574 191.363 125.691C193.021 137.808 199.882 146.876 206.687 145.945Z" stroke="#B5FFC5" stroke-width="2"/>
</g>
<defs>
<clipPath id="clip0_127_183">
<rect width="304" height="267" fill="white"/>
</clipPath>
</defs>
</svg>
