<svg width="317" height="277" viewBox="0 0 317 277" fill="none" xmlns="http://www.w3.org/2000/svg">
<mask id="path-1-inside-1_127_183" fill="white">
<path fill-rule="evenodd" clip-rule="evenodd" d="M146 71.001C166.987 71.001 184 53.9878 184 33.001C184 26.1797 182.203 19.7783 179.056 14.2443L245 5L254.374 71.8708C259.878 68.7699 266.232 67.0008 273 67.0008C293.987 67.0008 311 84.0139 311 105.001C311 125.988 293.987 143.001 273 143.001C269.972 143.001 267.026 142.646 264.202 141.977L273.543 208.607L208.357 217.745C210.693 222.673 212 228.184 212 234.001C212 254.988 194.987 272.001 174 272.001C153.013 272.001 136 254.988 136 234.001C136 231.896 136.171 229.83 136.5 227.818L71 237L61.7636 171.113C56.7072 173.602 51.0169 175.001 45 175.001C24.0132 175.001 7 157.988 7 137.001C7 116.014 24.0132 99.0008 45 99.0008C47.2994 99.0008 49.5512 99.205 51.7381 99.5963L42.4574 33.3933L109.059 24.0569C108.367 26.9251 108 29.9202 108 33.001C108 53.9878 125.013 71.001 146 71.001Z"/>
</mask>
<path d="M179.056 14.2443L178.778 12.2637L175.861 12.6726L177.317 15.233L179.056 14.2443ZM245 5L246.981 4.72235L246.703 2.74171L244.722 3.01937L245 5ZM254.374 71.8708L252.394 72.1485L252.801 75.0529L255.356 73.6133L254.374 71.8708ZM264.202 141.977L264.663 140.031L261.815 139.356L262.221 142.255L264.202 141.977ZM273.543 208.607L273.82 210.588L275.801 210.31L275.523 208.329L273.543 208.607ZM208.357 217.745L208.08 215.764L205.384 216.142L206.55 218.602L208.357 217.745ZM136.5 227.818L138.474 228.141L138.913 225.46L136.223 225.838L136.5 227.818ZM71 237L69.0194 237.278L69.297 239.259L71.2776 238.981L71 237ZM61.7636 171.113L63.7442 170.835L63.3604 168.097L60.8801 169.318L61.7636 171.113ZM51.7381 99.5963L51.3858 101.565L54.1017 102.051L53.7187 99.3187L51.7381 99.5963ZM42.4574 33.3933L42.1798 31.4127L40.1991 31.6904L40.4768 33.671L42.4574 33.3933ZM109.059 24.0569L111.003 24.5259L111.692 21.6681L108.781 22.0763L109.059 24.0569ZM182 33.001C182 52.8832 165.882 69.001 146 69.001V73.001C168.091 73.001 186 55.0924 186 33.001H182ZM177.317 15.233C180.297 20.4735 182 26.5354 182 33.001H186C186 25.8241 184.108 19.083 180.794 13.2557L177.317 15.233ZM179.334 16.225L245.278 6.98063L244.722 3.01937L178.778 12.2637L179.334 16.225ZM243.019 5.27765L252.394 72.1485L256.355 71.5932L246.981 4.72235L243.019 5.27765ZM255.356 73.6133C260.568 70.6768 266.585 69.0008 273 69.0008V65.0008C265.88 65.0008 259.188 66.863 253.393 70.1284L255.356 73.6133ZM273 69.0008C292.882 69.0008 309 85.1185 309 105.001H313C313 82.9094 295.091 65.0008 273 65.0008V69.0008ZM309 105.001C309 124.883 292.882 141.001 273 141.001V145.001C295.091 145.001 313 127.092 313 105.001H309ZM273 141.001C270.128 141.001 267.337 140.665 264.663 140.031L263.741 143.923C266.715 144.628 269.815 145.001 273 145.001V141.001ZM262.221 142.255L271.562 208.885L275.523 208.329L266.183 141.699L262.221 142.255ZM273.265 206.626L208.08 215.764L208.635 219.726L273.82 210.588L273.265 206.626ZM206.55 218.602C208.762 223.268 210 228.487 210 234.001H214C214 227.882 212.625 222.079 210.165 216.888L206.55 218.602ZM210 234.001C210 253.883 193.882 270.001 174 270.001V274.001C196.091 274.001 214 256.092 214 234.001H210ZM174 270.001C154.118 270.001 138 253.883 138 234.001H134C134 256.092 151.909 274.001 174 274.001V270.001ZM138 234.001C138 232.004 138.162 230.047 138.474 228.141L134.527 227.495C134.18 229.614 134 231.787 134 234.001H138ZM136.223 225.838L70.7223 235.02L71.2776 238.981L136.778 229.799L136.223 225.838ZM72.9806 236.723L63.7442 170.835L59.7829 171.39L69.0194 237.278L72.9806 236.723ZM60.8801 169.318C56.0925 171.676 50.7038 173.001 45 173.001V177.001C51.33 177.001 57.3219 175.529 62.647 172.907L60.8801 169.318ZM45 173.001C25.1177 173.001 9 156.883 9 137.001H5C5 159.092 22.9086 177.001 45 177.001V173.001ZM9 137.001C9 117.119 25.1177 101.001 45 101.001V97.0008C22.9086 97.0008 5 114.909 5 137.001H9ZM45 101.001C47.1808 101.001 49.3146 101.194 51.3858 101.565L52.0904 97.6276C49.7877 97.2156 47.4181 97.0008 45 97.0008V101.001ZM53.7187 99.3187L44.4381 33.1157L40.4768 33.671L49.7574 99.874L53.7187 99.3187ZM42.7351 35.374L109.336 26.0375L108.781 22.0763L42.1798 31.4127L42.7351 35.374ZM110 33.001C110 30.0794 110.348 27.2417 111.003 24.5259L107.114 23.5878C106.386 26.6085 106 29.761 106 33.001H110ZM146 69.001C126.118 69.001 110 52.8832 110 33.001H106C106 55.0924 123.909 73.001 146 73.001V69.001Z" fill="#B5FFC5" mask="url(#path-1-inside-1_127_183)"/>
<circle cx="102" cy="91.001" r="6" stroke="#B5FFC5" stroke-width="2"/>
<circle cx="136" cy="86.001" r="6" stroke="#B5FFC5" stroke-width="2"/>
<circle cx="170" cy="81.001" r="6" stroke="#B5FFC5" stroke-width="2"/>
<circle cx="204" cy="76.001" r="6" stroke="#B5FFC5" stroke-width="2"/>
<path d="M143 178C151 174.001 173.5 173.501 180.5 176C178.5 202.5 143.5 195.5 143 178Z" stroke="#B5FFC5" stroke-width="2"/>
<rect x="67.6702" y="109.773" width="176.087" height="112.384" rx="21" transform="rotate(-8.12175 67.6702 109.773)" stroke="#B5FFC5" stroke-width="2"/>
<path d="M117.378 140.73L118.129 140.38L117.925 139.577C116.962 135.8 115.451 132.616 113.725 130.335C111.34 127.183 109.186 126.47 107.865 126.651C106.544 126.832 104.66 128.097 103.209 131.774C102.14 134.485 101.536 138.039 101.652 142.027L101.677 142.887L102.531 142.991C107.653 143.615 113.017 142.765 117.378 140.73ZM112.13 131.542C113.549 133.417 114.859 136.056 115.767 139.257C112.148 140.779 107.836 141.46 103.638 141.095C103.634 137.694 104.191 134.734 105.07 132.508C106.387 129.17 107.828 128.675 108.136 128.632C108.444 128.59 109.965 128.68 112.13 131.542ZM121.656 143.077C122.466 148.998 121.843 154.494 120.23 158.582C118.604 162.704 116.075 165.182 113.19 165.576C110.305 165.971 107.204 164.263 104.531 160.73C101.879 157.225 99.8023 152.099 98.9923 146.178C98.1823 140.257 98.8057 134.761 100.419 130.673C102.045 126.551 104.573 124.073 107.458 123.679C110.343 123.284 113.444 124.992 116.118 128.525C118.769 132.03 120.846 137.156 121.656 143.077Z" stroke="#B5FFC5" stroke-width="2"/>
<path d="M113.29 131.316C114.921 133.473 116.382 136.529 117.317 140.202C113.131 142.155 107.957 142.978 103.014 142.376C102.901 138.498 103.49 135.082 104.501 132.519C105.885 129.011 107.548 128.131 108.362 128.02C109.176 127.908 111.014 128.309 113.29 131.316Z" fill="#B5FFC5"/>
<path d="M112.492 131.92C113.911 133.795 115.221 136.434 116.129 139.635C112.509 141.157 108.197 141.838 104 141.473C103.995 138.072 104.553 135.112 105.431 132.886C106.748 129.547 108.189 129.053 108.498 129.01C108.806 128.968 110.327 129.058 112.492 131.92ZM113.687 166.945C120.493 166.014 124.666 155.437 123.008 143.32C121.351 131.203 114.49 122.135 107.684 123.066C100.879 123.997 96.7055 134.574 98.3632 146.691C100.021 158.808 106.882 167.876 113.687 166.945Z" stroke="#B5FFC5" stroke-width="2"/>
<path d="M217.74 125.108L218.491 124.758L218.286 123.955C217.324 120.178 215.813 116.994 214.087 114.713C211.702 111.561 209.547 110.848 208.226 111.029C206.906 111.21 205.022 112.475 203.571 116.152C202.501 118.863 201.898 122.417 202.014 126.405L202.039 127.264L202.893 127.368C208.014 127.993 213.378 127.143 217.74 125.108ZM212.492 115.92C213.911 117.795 215.221 120.434 216.129 123.635C212.509 125.157 208.197 125.838 204 125.473C203.995 122.072 204.553 119.112 205.431 116.886C206.748 113.547 208.189 113.053 208.498 113.01C208.806 112.968 210.327 113.058 212.492 115.92ZM222.018 127.455C222.828 133.376 222.204 138.872 220.591 142.96C218.965 147.082 216.437 149.56 213.552 149.954C210.667 150.349 207.566 148.641 204.892 145.108C202.241 141.603 200.164 136.477 199.354 130.556C198.544 124.635 199.167 119.139 200.78 115.051C202.406 110.929 204.935 108.451 207.82 108.057C210.705 107.662 213.806 109.369 216.479 112.903C219.131 116.408 221.208 121.534 222.018 127.455Z" stroke="#B5FFC5" stroke-width="2"/>
<path d="M213.29 115.316C214.921 117.473 216.382 120.529 217.317 124.202C213.131 126.155 207.957 126.978 203.014 126.376C202.901 122.498 203.49 119.082 204.501 116.519C205.885 113.011 207.548 112.131 208.362 112.02C209.176 111.908 211.014 112.309 213.29 115.316Z" fill="#B5FFC5"/>
<path d="M212.492 115.92C213.911 117.795 215.221 120.434 216.129 123.635C212.509 125.157 208.197 125.838 204 125.473C203.995 122.072 204.553 119.112 205.431 116.886C206.748 113.547 208.189 113.053 208.498 113.01C208.806 112.968 210.327 113.058 212.492 115.92ZM213.687 150.945C220.493 150.014 224.666 139.437 223.008 127.32C221.351 115.203 214.49 106.135 207.684 107.066C200.879 107.997 196.706 118.574 198.363 130.691C200.021 142.808 206.882 151.876 213.687 150.945Z" stroke="#B5FFC5" stroke-width="2"/>
</svg>
