<svg width="214" height="241" viewBox="0 0 214 241" fill="none" xmlns="http://www.w3.org/2000/svg">
<path d="M112.388 85.0932L104.388 114.093C78.3881 101.093 52.6405 119.033 88.4061 138.96C123.406 158.46 93.9061 238.46 33.4061 189.96L39.9061 169.961C64.4061 189.96 87.4061 174.461 58.9061 152.961C30.4061 131.461 44.8881 69.093 112.388 85.0932Z" fill="#B5FFC5"/>
<path d="M148.406 29.9839L138.406 239.96M148.406 29.9839L164.553 46.3138L185.906 46.4603L212.012 224.449L138.406 239.96M148.406 29.9839L137.896 33.0831M138.406 239.96L2 213.469L19.7604 68.482L48.9606 59.585C49.8271 53.1633 51.5781 46.4247 54.2643 39.6908C65.0413 12.6741 86.7902 -4.03654 102.842 2.3665C105.986 3.62051 108.678 5.66805 110.893 8.35315M77.1787 50.9873L58.1796 56.7761C59.1052 52.1329 60.5264 47.3063 62.46 42.459C71.6025 19.5399 88.7372 4.83892 100.732 9.62348C101.401 9.89041 102.04 10.2123 102.648 10.5863M77.1787 50.9873C77.4435 48.7908 77.8326 46.5671 78.3519 44.331C82.1083 28.1567 91.6952 15.5674 102.648 10.5863M77.1787 50.9873L85.0427 48.6684M102.648 10.5863C104.835 11.9299 106.629 13.9451 108.015 16.4932M110.893 8.35315C113.18 8.15085 115.477 8.29712 117.75 8.82481C127.921 11.187 135.182 20.6355 137.896 33.0831M110.893 8.35315C112.718 10.5649 114.22 13.2093 115.385 16.1991M108.015 16.4932C98.3109 19.1623 89.1713 30.4547 85.6946 45.4246C85.4423 46.511 85.2253 47.5931 85.0427 48.6684M108.015 16.4932C111.224 22.3921 112.251 31.1473 110.917 41.0385L85.0427 48.6684M115.385 16.1991C115.504 16.2236 115.623 16.2496 115.741 16.2772C123.271 18.0258 128.562 25.4172 130.475 35.2712M115.385 16.1991C117.843 22.5056 118.801 30.349 118.131 38.9112L130.475 35.2712M130.475 35.2712L137.896 33.0831M112.388 85.0932L104.388 114.093C78.3881 101.093 52.6405 119.033 88.4061 138.96C123.406 158.46 93.9061 238.46 33.4061 189.96L39.9061 169.961C64.4061 189.96 87.4061 174.461 58.9061 152.961C30.4061 131.461 44.8881 69.093 112.388 85.0932Z" stroke="#B5FFC5" stroke-width="2"/>
</svg>
