<svg width="188" height="249" viewBox="0 0 188 249" fill="none" xmlns="http://www.w3.org/2000/svg">
<path d="M52.5915 38.9317L52.5701 38.948L52.5496 38.9655C35.2018 53.7689 25.0216 70.9984 26.6257 95.102C27.0935 102.132 21.7843 108.208 14.7712 108.676C7.75841 109.145 1.69138 103.829 1.22356 96.799C-0.981216 63.6678 13.3631 39.7226 33.8006 21.5017L33.8352 21.4708L33.8668 21.4369C34.2492 21.0264 34.6633 20.6362 35.1091 20.2696C35.582 19.8806 36.0594 19.498 36.5411 19.1216L36.5562 19.1098L36.5709 19.0974L36.6074 19.0665C36.9355 18.7894 37.2732 18.532 37.6191 18.2939L37.6363 18.2821L37.653 18.2696C53.7925 6.14199 74.5088 0.835532 94.2512 1.00388C115.015 1.18093 136.392 7.42688 151.963 20.2861C152.035 20.3454 152.106 20.4053 152.176 20.4658L152.185 20.474L152.195 20.4819C175.605 39.6711 187.379 64.5947 186.991 90.4117C186.614 115.492 174.795 139.852 154.036 159.255L153.999 159.291L153.964 159.33C153.676 159.662 153.366 159.983 153.037 160.291C149.158 163.919 138.375 176.453 132.697 191.24C131.269 194.961 128.291 197.626 124.782 198.781L124.722 198.801L124.664 198.828C124.225 199.038 123.768 199.224 123.296 199.386C113.893 202.603 105.219 204.742 95.711 204.978C86.2153 205.214 76.6947 203.536 65.5242 200.191C58.7892 198.175 54.9586 191.069 56.9724 184.319C58.9859 177.569 66.0787 173.735 72.8129 175.751C82.4321 178.631 89.1501 179.625 95.0796 179.478C99.9273 179.357 104.789 178.463 110.864 176.611L111.292 176.481L111.48 176.075C118.988 159.844 130.045 146.974 135.432 141.864L136.138 141.195L136.09 141.141C153.033 125.56 161.276 107.266 161.535 90.0275C161.791 72.978 154.276 55.37 136.603 40.6612L136.609 40.6535L135.836 40.0233L135.77 39.9696L135.77 39.9695C125.678 31.6346 110.369 26.6502 94.0346 26.5109C78.3869 26.3775 63.3574 30.7026 52.5915 38.9317Z" stroke="#B5FFC5" stroke-width="2" stroke-linecap="round"/>
<path d="M121.822 215.343C122.595 218.489 120.779 221.634 117.872 222.42C109.385 224.714 102.28 225.977 94.6605 226C87.0751 226.022 79.2383 224.814 69.2887 222.461C66.3633 221.769 64.4563 218.685 65.1379 215.516C65.8166 212.359 68.7731 210.454 71.6805 211.141C81.2477 213.404 88.1948 214.42 94.6298 214.401C101.031 214.382 107.182 213.338 115.158 211.182C118.045 210.402 121.053 212.212 121.822 215.343Z" stroke="#B5FFC5" stroke-width="2" stroke-linecap="round"/>
<path d="M80.975 241.699L80.7775 241.204L80.2564 241.092C78.0079 240.608 75.644 240.022 73.1216 239.336C70.8704 238.723 69.5366 236.394 70.149 234.131C70.7611 231.869 73.0837 230.537 75.3338 231.149C83.3351 233.326 89.1124 234.295 94.4446 234.277C99.7451 234.259 104.854 233.265 111.521 231.191C113.748 230.499 116.116 231.747 116.809 233.985C117.501 236.225 116.251 238.6 114.023 239.293C111.7 240.016 109.498 240.633 107.36 241.138L106.854 241.258L106.662 241.741L105.838 243.807L105.811 243.873L105.794 243.943C105.499 245.166 104.574 246.193 103.287 246.556C100.071 247.464 97.2841 247.991 94.2602 248C91.2606 248.009 88.2148 247.508 84.4798 246.586C83.1411 246.255 82.163 245.207 81.8587 243.942L81.8419 243.873L81.8153 243.806L80.975 241.699Z" stroke="#B5FFC5" stroke-width="2" stroke-linecap="round"/>
<path d="M93.5 133.154C89.6057 114.268 74.7315 99.3943 55.8458 95.5C74.7315 91.6057 89.6057 76.7315 93.5 57.8458C97.3943 76.7315 112.268 91.6057 131.154 95.5C112.268 99.3943 97.3943 114.268 93.5 133.154Z" stroke="#B5FFC5" stroke-width="2"/>
</svg>
